<svg width="16" height="20" viewBox="0 0 16 20" fill="none" xmlns="http://www.w3.org/2000/svg">
<g id="Group">
<path id="Vector" d="M9.22999 13.7492C9.22999 14.0206 9.31834 14.2847 9.48168 14.5014C9.64502 14.7182 9.87448 14.8759 10.1354 14.9508C10.3963 15.0256 10.6745 15.0135 10.9279 14.9162C11.1813 14.8189 11.3961 14.6419 11.54 14.4117L14.9 11.0529C15.016 10.9368 15.1081 10.7989 15.1709 10.6472C15.2336 10.4955 15.2659 10.3329 15.2659 10.1687C15.2658 10.0046 15.2334 9.842 15.1705 9.69033C15.1076 9.53867 15.0155 9.40087 14.8994 9.28482C14.7832 9.16876 14.6454 9.07672 14.4937 9.01394C14.342 8.95116 14.1794 8.91888 14.0152 8.91894C13.851 8.91899 13.6884 8.95139 13.5368 9.01428C13.3851 9.07716 13.2473 9.1693 13.1312 9.28544L11.7312 10.6854V1.24919C11.7312 0.917671 11.5995 0.599728 11.3651 0.365308C11.1307 0.130888 10.8128 -0.000808716 10.4812 -0.000808716C10.1497 -0.000808716 9.83178 0.130888 9.59736 0.365308C9.36294 0.599728 9.23124 0.917671 9.23124 1.24919V13.6867V13.7492H9.22999Z" fill="white"/>
<path id="Vector_2" d="M6.76999 6.24919C6.77 5.97777 6.68165 5.71372 6.51831 5.49694C6.35497 5.28017 6.1255 5.12245 5.8646 5.04763C5.60369 4.9728 5.32552 4.98493 5.07212 5.08218C4.81871 5.17943 4.60385 5.35652 4.45999 5.58669L1.10124 8.94544C0.981857 9.06075 0.886629 9.19868 0.821118 9.35119C0.755607 9.50369 0.721124 9.66772 0.719682 9.83369C0.71824 9.99966 0.749867 10.1643 0.812718 10.3179C0.875569 10.4715 0.968385 10.6111 1.08575 10.7284C1.20312 10.8458 1.34268 10.9386 1.4963 11.0015C1.64992 11.0643 1.81452 11.0959 1.9805 11.0945C2.14647 11.0931 2.3105 11.0586 2.463 10.9931C2.61551 10.9276 2.75344 10.8323 2.86874 10.7129L4.26999 9.31294V18.7492C4.26999 19.0807 4.40169 19.3987 4.63611 19.6331C4.87053 19.8675 5.18847 19.9992 5.51999 19.9992C5.85151 19.9992 6.16946 19.8675 6.40388 19.6331C6.6383 19.3987 6.76999 19.0807 6.76999 18.7492V6.31169V6.24919Z" fill="white"/>
</g>
</svg>
